# Blender v2.79 (sub 0) OBJ File: ''
# www.blender.org
v -9.444265 18.624756 -0.049779
v 9.755739 -0.575250 -0.049790
v 9.755739 18.624756 -0.049779
v 0.155736 18.624760 -9.649780
v 0.155739 -0.575254 9.550211
v 0.155738 18.624748 9.550222
v 6.943962 18.624756 -6.838007
v -6.632488 -0.575250 6.738439
v -6.632489 18.624750 6.738448
v 9.755739 -0.575250 -0.049790
v -9.444265 18.624756 -0.049779
v 9.755739 18.624756 -0.049779
v 0.155739 -0.575254 9.550211
v 0.155736 18.624760 -9.649780
v 0.155738 18.624748 9.550222
v -6.632488 -0.575250 6.738439
v 6.943962 18.624756 -6.838007
v -6.632489 18.624750 6.738448
v -6.632489 -0.575245 -6.838013
v 6.943965 18.624750 6.738443
v -6.632491 18.624756 -6.838005
v 6.943965 18.624750 6.738443
v -6.632489 -0.575245 -6.838013
v -6.632491 18.624756 -6.838005
v -9.444265 -0.575250 -0.049790
v 0.155737 -0.575243 -9.649792
v 6.943964 -0.575245 -6.838016
v -9.444265 -0.575250 -0.049790
v 0.155737 -0.575243 -9.649792
v 6.943964 -0.575245 -6.838016
v 6.943965 -0.575250 6.738436
v 6.943965 -0.575250 6.738436
vt 0.500000 0.500000
vt 0.000000 0.500000
vt 0.000000 1.000000
vt 0.500000 0.500000
vt 0.000000 0.500000
vt 0.000000 1.000000
vt 0.500000 0.500000
vt 0.000000 0.500000
vt 0.000000 1.000000
vt 0.000000 1.000000
vt 0.000000 0.500000
vt 0.500000 0.500000
vt 0.000000 1.000000
vt 0.000000 0.500000
vt 0.500000 0.500000
vt 0.000000 1.000000
vt 0.000000 0.500000
vt 0.500000 0.500000
vt 0.000000 1.000000
vt 0.000000 0.500000
vt 0.500000 0.500000
vt 0.500000 0.500000
vt 0.000000 0.500000
vt 0.000000 1.000000
vt 0.500000 1.000000
vt 0.500000 1.000000
vt 0.500000 1.000000
vt 0.500000 1.000000
vt 0.500000 1.000000
vt 0.500000 1.000000
vt 0.500000 1.000000
vt 0.500000 1.000000
vn 0.0000 0.0000 -1.0000
vn 1.0000 0.0000 -0.0000
vn 0.7071 -0.0000 0.7071
vn 0.0000 -0.0000 1.0000
vn -1.0000 -0.0000 0.0000
vn -0.7071 0.0000 -0.7071
vn 0.7071 0.0000 -0.7071
vn -0.7071 -0.0000 0.7071
s 1
f 1/1/1 3/2/1 2/3/1
f 4/4/2 6/5/2 5/6/2
f 7/7/3 9/8/3 8/9/3
f 10/10/4 12/11/4 11/12/4
f 13/13/5 15/14/5 14/15/5
f 16/16/6 18/17/6 17/18/6
f 19/19/7 21/20/7 20/21/7
f 22/22/8 24/23/8 23/24/8
f 1/1/1 2/3/1 25/25/1
f 4/4/2 5/6/2 26/26/2
f 7/7/3 8/9/3 27/27/3
f 10/10/4 11/12/4 28/28/4
f 13/13/5 14/15/5 29/29/5
f 16/16/6 17/18/6 30/30/6
f 19/19/7 20/21/7 31/31/7
f 22/22/8 23/24/8 32/32/8
