# Blender v2.79 (sub 0) OBJ File: ''
# www.blender.org
v -48.000000 0.000000 0.000000
v 0.000000 0.000000 0.000000
v -48.000000 24.000000 0.000000
v 0.000000 24.000000 0.000000
v -48.000000 0.000000 0.000000
v 0.000000 0.000000 0.000000
v -48.000000 24.000000 0.000000
v 0.000000 24.000000 0.000000
v 48.000000 0.000000 0.000000
v 48.000000 24.000000 0.000000
v 0.000000 0.000000 0.000000
v 0.000000 24.000000 0.000000
v 48.000000 0.000000 0.000000
v 48.000000 24.000000 0.000000
vt 0.999929 0.000071
vt 0.000071 0.500000
vt 0.000071 0.000071
vt 0.000071 0.500000
vt 0.999929 0.000071
vt 0.000071 0.000071
vt 0.000071 0.000071
vt 0.999929 0.500000
vt 0.000071 0.500000
vt 0.999929 0.500000
vt 0.000071 0.000071
vt 0.000071 0.500000
vt 0.999929 0.500000
vt 0.999929 0.500000
vt 0.999929 0.000071
vt 0.999929 0.000071
vn 0.0000 0.0000 1.0000
vn 0.0000 0.0000 -1.0000
s off
f 2/1/1 3/2/1 1/3/1
f 7/4/2 6/5/2 5/6/2
f 8/7/2 9/8/2 6/9/2
f 13/10/1 12/11/1 11/12/1
f 2/1/1 4/13/1 3/2/1
f 7/4/2 8/14/2 6/5/2
f 8/7/2 10/15/2 9/8/2
f 13/10/1 14/16/1 12/11/1
