# Blender v2.79 (sub 0) OBJ File: ''
# www.blender.org
v -80.000008 73.572639 320.000031
v -80.000008 57.572716 159.999985
v -80.000008 57.572639 320.000031
v 79.999992 57.572716 159.999985
v 79.999992 73.572800 0.000004
v 79.999992 73.572716 160.000000
v 79.999992 57.572639 320.000031
v 79.999992 73.572639 320.000031
v -80.000008 73.572716 160.000000
v -80.000008 73.572800 0.000004
v -80.000008 57.572876 -160.000015
v -80.000008 57.572796 0.000001
v 79.999992 57.572796 0.000001
v 79.999992 57.572876 -160.000015
v 79.999992 73.572952 -319.999969
v 79.999992 73.572876 -160.000000
v -80.000008 73.572876 -160.000000
v -80.000008 73.572952 -319.999969
v 79.999992 57.572956 -319.999969
v -80.000008 57.572956 -319.999969
v -79.999992 81.572723 144.000000
v -66.143578 -78.427261 151.999924
v -79.999992 -78.427261 143.999924
v -66.143578 81.572723 152.000000
v -66.143593 -78.427261 167.999924
v -66.143593 81.572716 168.000000
v -79.999992 -78.427261 175.999924
v -79.999992 81.572708 176.000015
v -93.856407 -78.427261 167.999924
v -93.856407 81.572716 168.000000
v -93.856407 -78.427261 151.999924
v -93.856407 81.572723 152.000000
v 80.000008 81.572723 144.000000
v 93.856422 -78.427261 151.999924
v 80.000008 -78.427261 143.999924
v 93.856422 81.572723 152.000000
v 93.856407 -78.427261 167.999924
v 93.856407 81.572716 168.000000
v 80.000008 -78.427261 175.999924
v 80.000008 81.572708 176.000015
v 66.143593 -78.427261 167.999924
v 66.143593 81.572716 168.000000
v 66.143593 -78.427261 151.999924
v 66.143593 81.572723 152.000000
v 80.000008 81.572891 -176.000000
v 93.856422 -78.427109 -168.000092
v 80.000008 -78.427109 -176.000092
v 93.856422 81.572876 -168.000000
v 93.856407 -78.427124 -152.000092
v 93.856407 81.572868 -152.000000
v 80.000008 -78.427124 -144.000092
v 80.000008 81.572868 -144.000000
v 66.143593 -78.427124 -152.000092
v 66.143593 81.572868 -152.000000
v 66.143593 -78.427109 -168.000092
v 66.143593 81.572876 -168.000000
v -79.999992 81.572891 -176.000000
v -66.143578 -78.427109 -168.000092
v -79.999992 -78.427109 -176.000092
v -66.143578 81.572876 -168.000000
v -66.143593 -78.427124 -152.000092
v -66.143593 81.572868 -152.000000
v -79.999992 -78.427124 -144.000092
v -79.999992 81.572868 -144.000000
v -93.856407 -78.427124 -152.000092
v -93.856407 81.572868 -152.000000
v -93.856407 -78.427109 -168.000092
v -93.856407 81.572876 -168.000000
vt 1.000000 0.750000
vt 0.500000 0.687500
vt 1.000000 0.687500
vt 1.000000 0.750000
vt 0.500000 0.687500
vt 1.000000 0.687500
vt 1.000000 0.750000
vt 0.500000 0.687500
vt 1.000000 0.687500
vt 1.000000 0.750000
vt 0.500000 0.687500
vt 1.000000 0.687500
vt 0.500000 0.500000
vt 0.000000 1.000000
vt 0.000000 0.500000
vt 0.500000 0.500000
vt 0.000000 1.000000
vt 0.000000 0.500000
vt 1.000000 0.750000
vt 0.500000 0.687500
vt 1.000000 0.687500
vt 0.000000 1.000000
vt 0.500000 0.500000
vt 0.500000 1.000000
vt 0.000000 1.000000
vt 0.500000 0.500000
vt 0.500000 1.000000
vt 1.000000 0.750000
vt 0.500000 0.687500
vt 1.000000 0.687500
vt 1.000000 0.750000
vt 0.500000 0.687500
vt 1.000000 0.687500
vt 1.000000 0.750000
vt 0.500000 0.687500
vt 1.000000 0.687500
vt 0.000000 1.000000
vt 0.500000 0.500000
vt 0.500000 1.000000
vt 0.000000 1.000000
vt 0.500000 0.500000
vt 0.500000 1.000000
vt 1.000000 0.750000
vt 0.500000 0.687500
vt 1.000000 0.687500
vt 0.000000 1.000000
vt 0.500000 0.500000
vt 0.500000 1.000000
vt 0.000000 1.000000
vt 0.500000 0.500000
vt 0.500000 1.000000
vt 1.000000 0.750000
vt 0.500000 0.687500
vt 1.000000 0.687500
vt 0.500000 0.664062
vt 1.000000 0.625000
vt 1.000000 0.664062
vt 0.500000 0.625000
vt 1.000000 0.585938
vt 0.500000 0.585938
vt 1.000000 0.546875
vt 0.500000 0.546875
vt 1.000000 0.507812
vt 0.726562 0.937500
vt 0.617188 0.757812
vt 0.515625 0.937500
vt 0.500000 0.742188
vt 1.000000 0.703125
vt 1.000000 0.742188
vt 0.500000 0.703125
vt 0.500000 0.664062
vt 1.000000 0.625000
vt 1.000000 0.664062
vt 0.500000 0.625000
vt 1.000000 0.585938
vt 0.500000 0.585938
vt 1.000000 0.546875
vt 0.500000 0.546875
vt 1.000000 0.507812
vt 0.726562 0.937500
vt 0.617188 0.757812
vt 0.515625 0.937500
vt 0.500000 0.742188
vt 1.000000 0.703125
vt 1.000000 0.742188
vt 0.500000 0.703125
vt 0.500000 0.664062
vt 1.000000 0.625000
vt 1.000000 0.664062
vt 0.500000 0.625000
vt 1.000000 0.585938
vt 0.500000 0.585938
vt 1.000000 0.546875
vt 0.500000 0.546875
vt 1.000000 0.507812
vt 0.726562 0.937500
vt 0.617188 0.757812
vt 0.515625 0.937500
vt 0.500000 0.742188
vt 1.000000 0.703125
vt 1.000000 0.742188
vt 0.500000 0.703125
vt 0.500000 0.664062
vt 1.000000 0.625000
vt 1.000000 0.664062
vt 0.500000 0.625000
vt 1.000000 0.585938
vt 0.500000 0.585938
vt 1.000000 0.546875
vt 0.500000 0.546875
vt 1.000000 0.507812
vt 0.726562 0.937500
vt 0.617188 0.757812
vt 0.515625 0.937500
vt 0.500000 0.742188
vt 1.000000 0.703125
vt 1.000000 0.742188
vt 0.500000 0.703125
vt 0.500000 0.750000
vt 0.500000 0.750000
vt 0.500000 0.750000
vt 0.500000 0.750000
vt 0.500000 1.000000
vt 0.500000 1.000000
vt 0.500000 0.750000
vt 0.000000 0.500000
vt 0.000000 0.500000
vt 0.500000 0.750000
vt 0.500000 0.750000
vt 0.500000 0.750000
vt 0.000000 0.500000
vt 0.000000 0.500000
vt 0.500000 0.750000
vt 0.000000 0.500000
vt 0.000000 0.500000
vt 0.500000 0.750000
vt 0.500000 0.507812
vt 0.617188 0.992188
vt 0.726562 0.812500
vt 0.515625 0.812500
vt 0.500000 0.507812
vt 0.617188 0.992188
vt 0.726562 0.812500
vt 0.515625 0.812500
vt 0.500000 0.507812
vt 0.617188 0.992188
vt 0.726562 0.812500
vt 0.515625 0.812500
vt 0.500000 0.507812
vt 0.617188 0.992188
vt 0.726562 0.812500
vt 0.515625 0.812500
vn -1.0000 -0.0000 0.0000
vn 1.0000 -0.0000 0.0000
vn 0.0000 0.0000 1.0000
vn 0.0000 -1.0000 -0.0000
vn 0.0000 1.0000 0.0000
vn 0.0000 0.0000 -1.0000
vn 0.5000 0.0000 -0.8660
vn 0.5000 -0.0000 0.8660
vn -0.5000 -0.0000 0.8660
vn -0.5000 0.0000 -0.8660
s 1
f 1/1/1 2/2/1 3/3/1
f 4/4/2 5/5/2 6/6/2
f 6/7/2 7/8/2 4/9/2
f 8/10/3 3/11/3 7/12/3
f 4/13/4 3/14/4 2/15/4
f 9/16/5 8/17/5 6/18/5
f 10/19/1 11/20/1 12/21/1
f 2/22/4 13/23/4 4/24/4
f 6/25/5 10/26/5 9/27/5
f 9/28/1 12/29/1 2/30/1
f 14/31/2 15/32/2 16/33/2
f 13/34/2 16/35/2 5/36/2
f 12/37/4 14/38/4 13/39/4
f 5/40/5 17/41/5 10/42/5
f 18/43/6 19/44/6 20/45/6
f 11/46/4 19/47/4 14/48/4
f 16/49/5 18/50/5 17/51/5
f 17/52/1 20/53/1 11/54/1
f 21/55/7 22/56/7 23/57/7
f 24/58/2 25/59/2 22/56/2
f 26/60/8 27/61/8 25/59/8
f 28/62/9 29/63/9 27/61/9
f 21/64/5 30/65/5 26/66/5
f 30/67/1 31/68/1 29/69/1
f 32/70/10 23/57/10 31/68/10
f 33/71/7 34/72/7 35/73/7
f 36/74/2 37/75/2 34/72/2
f 38/76/8 39/77/8 37/75/8
f 40/78/9 41/79/9 39/77/9
f 33/80/5 42/81/5 38/82/5
f 42/83/1 43/84/1 41/85/1
f 44/86/10 35/73/10 43/84/10
f 45/87/7 46/88/7 47/89/7
f 48/90/2 49/91/2 46/88/2
f 50/92/8 51/93/8 49/91/8
f 52/94/9 53/95/9 51/93/9
f 45/96/5 54/97/5 50/98/5
f 54/99/1 55/100/1 53/101/1
f 56/102/10 47/89/10 55/100/10
f 57/103/7 58/104/7 59/105/7
f 60/106/2 61/107/2 58/104/2
f 62/108/8 63/109/8 61/107/8
f 64/110/9 65/111/9 63/109/9
f 57/112/5 66/113/5 62/114/5
f 66/115/1 67/116/1 65/117/1
f 68/118/10 59/105/10 67/116/10
f 1/1/1 9/119/1 2/2/1
f 4/4/2 13/120/2 5/5/2
f 6/7/2 8/121/2 7/8/2
f 8/10/3 1/122/3 3/11/3
f 4/13/4 7/123/4 3/14/4
f 9/16/5 1/124/5 8/17/5
f 10/19/1 17/125/1 11/20/1
f 2/22/4 12/126/4 13/23/4
f 6/25/5 5/127/5 10/26/5
f 9/28/1 10/128/1 12/29/1
f 14/31/2 19/129/2 15/32/2
f 13/34/2 14/130/2 16/35/2
f 12/37/4 11/131/4 14/38/4
f 5/40/5 16/132/5 17/41/5
f 18/43/6 15/133/6 19/44/6
f 11/46/4 20/134/4 19/47/4
f 16/49/5 15/135/5 18/50/5
f 17/52/1 18/136/1 20/53/1
f 21/55/7 24/58/7 22/56/7
f 24/58/2 26/60/2 25/59/2
f 26/60/8 28/62/8 27/61/8
f 28/62/9 30/137/9 29/63/9
f 26/66/5 24/138/5 21/64/5
f 21/64/5 32/139/5 30/65/5
f 30/65/5 28/140/5 26/66/5
f 30/67/1 32/70/1 31/68/1
f 32/70/10 21/55/10 23/57/10
f 33/71/7 36/74/7 34/72/7
f 36/74/2 38/76/2 37/75/2
f 38/76/8 40/78/8 39/77/8
f 40/78/9 42/141/9 41/79/9
f 38/82/5 36/142/5 33/80/5
f 33/80/5 44/143/5 42/81/5
f 42/81/5 40/144/5 38/82/5
f 42/83/1 44/86/1 43/84/1
f 44/86/10 33/71/10 35/73/10
f 45/87/7 48/90/7 46/88/7
f 48/90/2 50/92/2 49/91/2
f 50/92/8 52/94/8 51/93/8
f 52/94/9 54/145/9 53/95/9
f 50/98/5 48/146/5 45/96/5
f 45/96/5 56/147/5 54/97/5
f 54/97/5 52/148/5 50/98/5
f 54/99/1 56/102/1 55/100/1
f 56/102/10 45/87/10 47/89/10
f 57/103/7 60/106/7 58/104/7
f 60/106/2 62/108/2 61/107/2
f 62/108/8 64/110/8 63/109/8
f 64/110/9 66/149/9 65/111/9
f 62/114/5 60/150/5 57/112/5
f 57/112/5 68/151/5 66/113/5
f 66/113/5 64/152/5 62/114/5
f 66/115/1 68/118/1 67/116/1
f 68/118/10 57/103/10 59/105/10
