# Blender v2.79 (sub 0) OBJ File: ''
# www.blender.org
v -0.250000 -0.111111 0.250000
v -0.135000 2.388889 0.135000
v -0.250000 -0.111111 -0.250000
v -0.135000 2.388889 -0.135000
v 0.250000 -0.111111 0.250000
v 0.135000 2.388889 0.135000
v 0.250000 -0.111111 -0.250000
v 0.135000 2.388889 -0.135000
v 0.000000 4.388889 0.000000
v 0.000000 0.250000 -2.304000
v 0.000000 1.750000 0.000000
v 1.995323 0.250000 -1.152000
v 1.995323 0.250000 1.152000
v 0.000000 0.250000 2.304000
v -1.995323 0.250000 1.152000
v -1.995323 0.250000 -1.152000
v 0.000000 0.250000 -2.304000
v 1.995323 0.250000 -1.152000
v 0.000000 1.750000 0.000000
v 1.995323 0.250000 1.152000
v 0.000000 0.250000 2.304000
v -1.995323 0.250000 1.152000
v -1.995323 0.250000 -1.152000
v 0.000000 3.392500 -0.790271
v 0.000000 4.607500 0.000001
v 0.684396 3.392500 -0.395135
v 0.684396 3.392500 0.395137
v 0.000000 3.392500 0.790273
v -0.684396 3.392500 0.395137
v -0.684396 3.392500 -0.395135
v 0.000000 3.392500 -0.790271
v 0.684396 3.392500 -0.395135
v 0.000000 4.607500 0.000001
v 0.684396 3.392500 0.395137
v 0.000000 3.392500 0.790273
v -0.684396 3.392500 0.395137
v -0.684396 3.392500 -0.395135
v 0.000000 2.325000 -1.128960
v 0.000000 3.675000 0.000001
v 0.977708 2.325000 -0.564480
v 0.977708 2.325000 0.564480
v 0.000000 2.325000 1.128960
v -0.977708 2.325000 0.564480
v -0.977708 2.325000 -0.564480
v 0.000000 2.325000 -1.128960
v 0.977708 2.325000 -0.564480
v 0.000000 3.675000 0.000001
v 0.977708 2.325000 0.564480
v 0.000000 2.325000 1.128960
v -0.977708 2.325000 0.564480
v -0.977708 2.325000 -0.564480
v 0.000000 1.325000 -1.612800
v 0.000000 2.675000 0.000000
v 1.396726 1.325000 -0.806400
v 1.396726 1.325000 0.806400
v 0.000000 1.325000 1.612800
v -1.396726 1.325000 0.806400
v -1.396726 1.325000 -0.806400
v 0.000000 1.325000 -1.612800
v 1.396726 1.325000 -0.806400
v 0.000000 2.675000 0.000000
v 1.396726 1.325000 0.806400
v 0.000000 1.325000 1.612800
v -1.396726 1.325000 0.806400
v -1.396726 1.325000 -0.806400
vt 0.252720 0.998706
vt 0.497280 0.926706
vt 0.497280 0.998706
vt 0.252720 0.998706
vt 0.497280 0.926706
vt 0.497280 0.998706
vt 0.252720 0.998706
vt 0.497280 0.926706
vt 0.497280 0.998706
vt 0.252720 0.998706
vt 0.497280 0.926706
vt 0.497280 0.998706
vt 0.497280 0.926706
vt 0.497280 0.998706
vt 0.252720 0.926706
vt 0.497280 0.926706
vt 0.497280 0.998706
vt 0.497280 0.926706
vt 0.497280 0.998706
vt 0.497280 0.926706
vt 0.497280 0.998706
vt 0.252720 0.926706
vt 0.252720 0.926706
vt 0.252720 0.926706
vt 0.252720 0.926706
vt 0.971619 0.638276
vt 0.750640 0.753100
vt 0.750640 0.523452
vt 0.529661 0.638276
vt 0.529661 0.867925
vt 0.750640 0.982749
vt 0.971619 0.867925
vt 0.971619 0.638276
vt 0.750640 0.523452
vt 0.750640 0.753100
vt 0.529661 0.638276
vt 0.529661 0.867925
vt 0.750640 0.982749
vt 0.971619 0.867925
vt 0.971619 0.638276
vt 0.750640 0.753100
vt 0.750640 0.523452
vt 0.529661 0.638276
vt 0.529661 0.867925
vt 0.750640 0.982749
vt 0.971619 0.867925
vt 0.971619 0.638276
vt 0.750640 0.523452
vt 0.750640 0.753100
vt 0.529661 0.638276
vt 0.529661 0.867925
vt 0.750640 0.982749
vt 0.971619 0.867925
vt 0.971619 0.638276
vt 0.750640 0.753100
vt 0.750640 0.523452
vt 0.529661 0.638276
vt 0.529661 0.867925
vt 0.750640 0.982749
vt 0.971619 0.867925
vt 0.971619 0.638276
vt 0.750640 0.523452
vt 0.750640 0.753100
vt 0.529661 0.638276
vt 0.529661 0.867925
vt 0.750640 0.982749
vt 0.971619 0.867925
vt 0.971619 0.638276
vt 0.750640 0.753100
vt 0.750640 0.523452
vt 0.529661 0.638276
vt 0.529661 0.867925
vt 0.750640 0.982749
vt 0.971619 0.867925
vt 0.971619 0.638276
vt 0.750640 0.523452
vt 0.750640 0.753100
vt 0.529661 0.638276
vt 0.529661 0.867925
vt 0.750640 0.982749
vt 0.971619 0.867925
vn -0.9989 0.0460 0.0000
vn 0.0000 0.0460 -0.9989
vn 0.9989 0.0460 0.0000
vn 0.0000 0.0460 0.9989
vn 0.9977 0.0673 0.0000
vn -0.9977 0.0673 0.0000
vn 0.0000 0.0673 0.9977
vn 0.0000 0.0673 -0.9977
vn 0.0000 0.8380 -0.5456
vn 0.0000 1.0000 0.0000
vn 0.4725 0.8380 -0.2728
vn 0.4725 0.8380 0.2728
vn 0.0000 0.8380 0.5456
vn -0.4725 0.8380 0.2728
vn -0.4725 0.8380 -0.2728
vn 0.0000 -0.8380 0.5456
vn -0.4725 -0.8380 0.2728
vn 0.0000 -1.0000 0.0000
vn -0.4725 -0.8380 -0.2728
vn 0.0000 -0.8380 -0.5456
vn 0.4725 -0.8380 -0.2728
vn 0.4725 -0.8380 0.2728
vn 0.0000 0.5452 -0.8383
vn 0.7259 0.5452 -0.4191
vn 0.7259 0.5452 0.4191
vn 0.0000 0.5452 0.8383
vn -0.7259 0.5452 0.4191
vn -0.7259 0.5452 -0.4191
vn 0.0000 -0.5452 0.8383
vn -0.7259 -0.5452 0.4191
vn -0.7259 -0.5452 -0.4191
vn 0.0000 -0.5452 -0.8383
vn 0.7259 -0.5452 -0.4191
vn 0.7259 -0.5452 0.4191
vn 0.0000 0.6415 -0.7671
vn 0.6643 0.6415 -0.3835
vn 0.6643 0.6415 0.3836
vn 0.0000 0.6415 0.7671
vn -0.6643 0.6415 0.3836
vn -0.6643 0.6415 -0.3835
vn 0.0000 -0.6415 0.7671
vn -0.6643 -0.6415 0.3835
vn -0.6643 -0.6415 -0.3836
vn 0.0000 -0.6415 -0.7671
vn 0.6643 -0.6415 -0.3836
vn 0.6643 -0.6415 0.3835
vn 0.0000 0.7668 -0.6419
vn 0.5559 0.7668 -0.3209
vn 0.5559 0.7668 0.3209
vn 0.0000 0.7668 0.6419
vn -0.5559 0.7668 0.3209
vn -0.5559 0.7668 -0.3209
vn 0.0000 -0.7668 0.6419
vn -0.5559 -0.7668 0.3209
vn -0.5559 -0.7668 -0.3209
vn 0.0000 -0.7668 -0.6419
vn 0.5559 -0.7668 -0.3209
vn 0.5559 -0.7668 0.3209
s off
f 2/1/1 3/2/1 1/3/1
f 4/4/2 7/5/2 3/6/2
f 8/7/3 5/8/3 7/9/3
f 6/10/4 1/11/4 5/12/4
f 6/13/5 8/14/5 9/15/5
f 4/16/6 2/17/6 9/15/6
f 2/18/7 6/19/7 9/15/7
f 8/20/8 4/21/8 9/15/8
f 2/1/1 4/22/1 3/2/1
f 4/4/2 8/23/2 7/5/2
f 8/7/3 6/24/3 5/8/3
f 6/10/4 2/25/4 1/11/4
s 1
f 10/26/9 11/27/10 12/28/11
f 12/28/11 11/27/10 13/29/12
f 13/29/12 11/27/10 14/30/13
f 14/30/13 11/27/10 15/31/14
f 15/31/14 11/27/10 16/32/15
f 16/32/15 11/27/10 10/26/9
f 17/33/16 18/34/17 19/35/18
f 18/34/17 20/36/19 19/35/18
f 20/36/19 21/37/20 19/35/18
f 21/37/20 22/38/21 19/35/18
f 22/38/21 23/39/22 19/35/18
f 23/39/22 17/33/16 19/35/18
f 24/40/23 25/41/10 26/42/24
f 26/42/24 25/41/10 27/43/25
f 27/43/25 25/41/10 28/44/26
f 28/44/26 25/41/10 29/45/27
f 29/45/27 25/41/10 30/46/28
f 30/46/28 25/41/10 24/40/23
f 31/47/29 32/48/30 33/49/18
f 32/48/30 34/50/31 33/49/18
f 34/50/31 35/51/32 33/49/18
f 35/51/32 36/52/33 33/49/18
f 36/52/33 37/53/34 33/49/18
f 37/53/34 31/47/29 33/49/18
f 38/54/35 39/55/10 40/56/36
f 40/56/36 39/55/10 41/57/37
f 41/57/37 39/55/10 42/58/38
f 42/58/38 39/55/10 43/59/39
f 43/59/39 39/55/10 44/60/40
f 44/60/40 39/55/10 38/54/35
f 45/61/41 46/62/42 47/63/18
f 46/62/42 48/64/43 47/63/18
f 48/64/43 49/65/44 47/63/18
f 49/65/44 50/66/45 47/63/18
f 50/66/45 51/67/46 47/63/18
f 51/67/46 45/61/41 47/63/18
f 52/68/47 53/69/10 54/70/48
f 54/70/48 53/69/10 55/71/49
f 55/71/49 53/69/10 56/72/50
f 56/72/50 53/69/10 57/73/51
f 57/73/51 53/69/10 58/74/52
f 58/74/52 53/69/10 52/68/47
f 59/75/53 60/76/54 61/77/18
f 60/76/54 62/78/55 61/77/18
f 62/78/55 63/79/56 61/77/18
f 63/79/56 64/80/57 61/77/18
f 64/80/57 65/81/58 61/77/18
f 65/81/58 59/75/53 61/77/18
